<svg width="27" height="28" viewBox="0 0 27 28" fill="none" xmlns="http://www.w3.org/2000/svg">
<path d="M18.0529 9.40523L17.2108 10.2352M5.84239 21.4405C5.2807 20.8869 8.58933 16.2645 15.7666 7.57172C16.0224 7.26206 16.3403 7.00771 16.7003 6.82455C17.0603 6.6414 17.4548 6.53337 17.8591 6.50721C18.2633 6.48106 18.6688 6.53734 19.05 6.67254C19.4312 6.80774 19.7801 7.01896 20.0747 7.293C20.3694 7.56705 20.6036 7.89804 20.7627 8.2653C20.9218 8.63256 21.0024 9.0282 20.9994 9.42753C20.9964 9.82685 20.9099 10.2213 20.7453 10.5862C20.5807 10.9511 20.3416 11.2786 20.0428 11.5483C11.1375 18.6964 6.40407 21.9941 5.84239 21.4405Z" stroke="#6B6B61" stroke-linecap="round" stroke-linejoin="round"/>
<path d="M17.6316 9.82007C15.6669 7.60641 14.6842 6.5 13.4211 6.5C12.1579 6.5 11.7368 7.33002 11.7368 8.16003C11.7368 11.4801 18.6093 15.1372 16.7895 17.2902C15.9002 18.3427 13.9575 18.3568 11.9474 17.9609M8.14863 16.813C6.97558 16.344 5 15.2152 5 13.9702M19.7368 11.8951L21 13.1401" stroke="#6B6B61" stroke-linecap="round" stroke-linejoin="round"/>
</svg>
