<svg width="27" height="28" viewBox="0 0 27 28" fill="none" xmlns="http://www.w3.org/2000/svg">
<path d="M10.2143 11.7784C12.3412 11.7784 14.0654 10.8242 14.0654 9.64704C14.0654 8.46989 12.3412 7.51562 10.2143 7.51562C8.08746 7.51562 6.36328 8.46989 6.36328 9.64704C6.36328 10.8242 8.08746 11.7784 10.2143 11.7784Z" stroke="#6B6B61" stroke-linecap="round" stroke-linejoin="round"/>
<path d="M10 14.9118C14.9706 14.9118 19 12.8049 19 10.2059C19 7.6069 14.9706 5.5 10 5.5C5.02944 5.5 1 7.6069 1 10.2059C1 12.8049 5.02944 14.9118 10 14.9118Z" stroke="#6B6B61" stroke-linecap="round" stroke-linejoin="round"/>
<path d="M1 10.2061V16.3475C1 19.1884 5.02692 21.5002 10 21.5002C14.9731 21.5002 19 19.1884 19 16.3475V10.2061" stroke="#6B6B61" stroke-linecap="round" stroke-linejoin="round"/>
<path d="M19 9.26465C19 9.26465 20.4306 11.3715 22.3744 11.4563C24.3183 11.5412 26 11.4563 26 11.4563V17.7203C26 17.7203 23.7395 17.8192 21.9485 17.5082C20.3105 17.2254 19 15.7266 19 15.7266V9.26465Z" stroke="#6B6B61" stroke-linecap="round" stroke-linejoin="round"/>
<path d="M4.5 16.7942C4.5 17.0704 4.72386 17.2942 5 17.2942C5.27614 17.2942 5.5 17.0704 5.5 16.7942H4.5ZM5.5 16.7942V13.9707H4.5V16.7942H5.5Z" fill="#6B6B61"/>
<path d="M9 18.6768V14.9121" stroke="#6B6B61" stroke-linecap="round" stroke-linejoin="round"/>
<path d="M13 17.7356V14.9121" stroke="#6B6B61" stroke-linecap="round" stroke-linejoin="round"/>
<path d="M16.5 15.8528C16.5 16.129 16.7239 16.3528 17 16.3528C17.2761 16.3528 17.5 16.129 17.5 15.8528H16.5ZM17.5 15.8528V13.0293H16.5V15.8528H17.5Z" fill="#6B6B61"/>
<path d="M23 17.7349V12.0879" stroke="#6B6B61" stroke-linecap="round" stroke-linejoin="round"/>
</svg>
