<svg width="27" height="28" viewBox="0 0 27 28" fill="none" xmlns="http://www.w3.org/2000/svg">
<path d="M13.5 17.375C14.3951 17.375 15.2536 17.0194 15.8865 16.3865C16.5194 15.7536 16.875 14.8951 16.875 14C16.875 13.1049 16.5194 12.2464 15.8865 11.6135C15.2536 10.9806 14.3951 10.625 13.5 10.625C12.6049 10.625 11.7464 10.9806 11.1135 11.6135C10.4806 12.2464 10.125 13.1049 10.125 14C10.125 14.8951 10.4806 15.7536 11.1135 16.3865C11.7464 17.0194 12.6049 17.375 13.5 17.375Z" stroke="#6B6B61" stroke-linecap="round" stroke-linejoin="round"/>
<path d="M22.0747 12.1944L20.8406 9.21312L22.5 7.25L20.25 5L18.2981 6.66837L15.2527 5.41625L14.5519 2.75H12.3536L11.6426 5.45113L8.667 6.7055L6.75 5L4.5 7.25L6.13463 9.26263L4.91963 12.2518L2.25 12.875V15.125L4.95113 15.8619L6.2055 18.8375L4.5 20.75L6.75 23L8.76487 21.3575L11.6966 22.5635L12.375 25.25H14.625L15.3045 22.5646L18.2869 21.3294C18.7841 21.6849 20.25 23 20.25 23L22.5 20.75L20.8305 18.7812L22.0658 15.7977L24.75 15.1002V12.875L22.0747 12.1944Z" stroke="#6B6B61" stroke-linecap="round" stroke-linejoin="round"/>
</svg>
